<svg xmlns="http://www.w3.org/2000/svg" x="0px" y="0px" width="100" height="100" viewBox="0,0,255.99538,255.99538">
<g fill="#ffffff" fill-rule="nonzero" stroke="none" stroke-width="1" stroke-linecap="butt" stroke-linejoin="miter" stroke-miterlimit="10" stroke-dasharray="" stroke-dashoffset="0" font-family="none" font-weight="none" font-size="none" text-anchor="none" style="mix-blend-mode: normal"><g transform="scale(10.66667,10.66667)"><path d="M11.0332,3.2207c-0.07502,-0.00239 -0.15114,0.0022 -0.22851,0.01758l-8,1.60156c-0.468,0.094 -0.80469,0.50347 -0.80469,0.98047v12.35938c0,0.477 0.33669,0.88647 0.80469,0.98047l8,1.60156c0.619,0.124 1.19531,-0.35142 1.19531,-0.98242v-15.55859c0,-0.55212 -0.44167,-0.98324 -0.9668,-1zM14,5v2h2v2h-2v2h2v2h-2v2h2v2h-2v2h7c0.552,0 1,-0.448 1,-1v-12c0,-0.552 -0.448,-1 -1,-1zM18,7h2v2h-2zM5.4375,8.29688c0.312,0 0.59484,0.18856 0.71484,0.47656l0.72461,1.73828c0.075,0.181 0.13145,0.39091 0.18945,0.62891h0.02539c0.033,-0.143 0.10017,-0.36148 0.20117,-0.64648l0.83984,-1.79102c0.116,-0.248 0.36467,-0.40625 0.63867,-0.40625c0.532,0 0.873,0.56516 0.625,1.03516l-1.38867,2.63477l1.40625,2.63281c0.264,0.5 -0.09611,1.10352 -0.66211,1.10352c-0.292,0 -0.55964,-0.16955 -0.68164,-0.43555l-0.91211,-1.98047c-0.042,-0.085 -0.09181,-0.25419 -0.13281,-0.49219h-0.01562c-0.025,0.114 -0.07539,0.28467 -0.15039,0.51367l-0.93164,1.98828c-0.116,0.248 -0.36662,0.40625 -0.64062,0.40625h-0.08594c-0.539,0 -0.88014,-0.57978 -0.61914,-1.05078l1.47852,-2.6582l-1.3125,-2.57227c-0.262,-0.515 0.11145,-1.125 0.68945,-1.125zM18,11h2v2h-2zM18,15h2v2h-2z"></path></g></g>
</svg>
